<svg xmlns="http://www.w3.org/2000/svg" xmlns:xlink="http://www.w3.org/1999/xlink" width="500" zoomAndPan="magnify" viewBox="0 0 375 374.999991" height="500" preserveAspectRatio="xMidYMid meet" version="1.0"><defs><clipPath id="3f355714e4"><path d="M 119.9375 98.335938 L 269.9375 98.335938 L 269.9375 248.335938 L 119.9375 248.335938 Z M 119.9375 98.335938 " clip-rule="nonzero"/></clipPath><clipPath id="0e036a286f"><path d="M 119.9375 98.335938 L 269.9375 98.335938 L 269.9375 248.335938 L 119.9375 248.335938 Z M 119.9375 98.335938 " clip-rule="nonzero"/></clipPath></defs><rect x="-37.5" width="450" fill="#ffffff" y="-37.499999" height="449.999989" fill-opacity="1"/><rect x="-37.5" width="450" fill="#ffffff" y="-37.499999" height="449.999989" fill-opacity="1"/><g clip-path="url(#3f355714e4)"><path fill="#a6a6a6" d="M 255.953125 203.617188 C 255.617188 210.929688 254.394531 214.902344 253.382812 217.539062 C 252.015625 221.039062 250.390625 223.539062 247.75 226.164062 C 245.144531 228.789062 242.640625 230.410156 239.144531 231.757812 C 236.503906 232.789062 232.515625 234.015625 225.207031 234.363281 C 217.300781 234.714844 214.957031 234.789062 194.914062 234.789062 C 174.886719 234.789062 172.527344 234.714844 164.621094 234.363281 C 157.3125 234.015625 153.34375 232.789062 150.703125 231.757812 C 147.1875 230.410156 144.703125 228.789062 142.082031 226.164062 C 139.4375 223.539062 137.8125 221.039062 136.464844 217.539062 C 135.449219 214.902344 134.210938 210.929688 133.894531 203.617188 C 133.507812 195.714844 133.4375 193.335938 133.4375 173.332031 C 133.4375 153.285156 133.507812 150.925781 133.894531 143.019531 C 134.210938 135.710938 135.449219 131.742188 136.464844 129.078125 C 137.8125 125.585938 139.4375 123.097656 142.082031 120.472656 C 144.703125 117.855469 147.1875 116.226562 150.703125 114.863281 C 153.34375 113.828125 157.3125 112.621094 164.621094 112.273438 C 172.527344 111.925781 174.886719 111.835938 194.914062 111.835938 C 214.957031 111.835938 217.300781 111.925781 225.207031 112.273438 C 232.515625 112.621094 236.503906 113.828125 239.144531 114.863281 C 242.640625 116.226562 245.144531 117.855469 247.75 120.472656 C 250.390625 123.097656 252.015625 125.585938 253.382812 129.078125 C 254.394531 131.742188 255.617188 135.710938 255.953125 143.019531 C 256.320312 150.925781 256.40625 153.285156 256.40625 173.332031 C 256.40625 193.335938 256.320312 195.714844 255.953125 203.617188 Z M 269.453125 142.40625 C 269.085938 134.414062 267.824219 128.957031 265.953125 124.203125 C 264.050781 119.269531 261.496094 115.089844 257.316406 110.910156 C 253.15625 106.75 248.972656 104.195312 244.042969 102.269531 C 239.269531 100.414062 233.828125 99.140625 225.835938 98.792969 C 217.84375 98.40625 215.289062 98.335938 194.914062 98.335938 C 174.558594 98.335938 171.988281 98.40625 163.992188 98.792969 C 156.019531 99.140625 150.582031 100.414062 145.785156 102.269531 C 140.871094 104.195312 136.691406 106.75 132.53125 110.910156 C 128.351562 115.089844 125.796875 119.269531 123.875 124.203125 C 122.019531 128.957031 120.761719 134.414062 120.375 142.40625 C 120.027344 150.398438 119.9375 152.957031 119.9375 173.332031 C 119.9375 193.6875 120.027344 196.238281 120.375 204.234375 C 120.761719 212.207031 122.019531 217.664062 123.875 222.4375 C 125.796875 227.351562 128.351562 231.550781 132.53125 235.714844 C 136.691406 239.875 140.871094 242.449219 145.785156 244.371094 C 150.582031 246.222656 156.019531 247.484375 163.992188 247.851562 C 171.988281 248.21875 174.558594 248.304688 194.914062 248.304688 C 215.289062 248.304688 217.84375 248.21875 225.835938 247.851562 C 233.828125 247.484375 239.269531 246.222656 244.042969 244.371094 C 248.972656 242.449219 253.15625 239.875 257.316406 235.714844 C 261.496094 231.550781 264.050781 227.351562 265.953125 222.4375 C 267.824219 217.664062 269.085938 212.207031 269.453125 204.234375 C 269.820312 196.238281 269.90625 193.6875 269.90625 173.332031 C 269.90625 152.957031 269.820312 150.398438 269.453125 142.40625 Z M 269.453125 142.40625 " fill-opacity="1" fill-rule="nonzero"/></g><path fill="#a6a6a6" d="M 194.914062 198.304688 C 181.117188 198.304688 169.921875 187.125 169.921875 173.332031 C 169.921875 159.511719 181.117188 148.320312 194.914062 148.320312 C 208.714844 148.320312 219.925781 159.511719 219.925781 173.332031 C 219.925781 187.125 208.714844 198.304688 194.914062 198.304688 Z M 194.914062 134.800781 C 173.648438 134.800781 156.421875 152.0625 156.421875 173.332031 C 156.421875 194.578125 173.648438 211.820312 194.914062 211.820312 C 216.183594 211.820312 233.425781 194.578125 233.425781 173.332031 C 233.425781 152.0625 216.183594 134.800781 194.914062 134.800781 Z M 194.914062 134.800781 " fill-opacity="1" fill-rule="nonzero"/><g clip-path="url(#0e036a286f)"><path fill="#d9d9d9" d="M 234.988281 248.335938 L 154.886719 248.335938 C 135.617188 248.335938 119.9375 232.65625 119.9375 213.386719 L 119.9375 133.285156 C 119.9375 114.015625 135.617188 98.335938 154.886719 98.335938 L 234.988281 98.335938 C 254.261719 98.335938 269.9375 114.015625 269.9375 133.285156 L 269.9375 213.386719 C 269.9375 232.65625 254.261719 248.335938 234.988281 248.335938 Z M 154.886719 104.117188 C 138.804688 104.117188 125.71875 117.203125 125.71875 133.285156 L 125.71875 213.386719 C 125.71875 229.46875 138.804688 242.554688 154.886719 242.554688 L 234.988281 242.554688 C 251.070312 242.554688 264.15625 229.46875 264.15625 213.386719 L 264.15625 133.285156 C 264.15625 117.203125 251.074219 104.117188 234.988281 104.117188 Z M 154.886719 104.117188 " fill-opacity="1" fill-rule="nonzero"/></g><path fill="#d9d9d9" d="M 226.65625 233.332031 L 163.222656 233.332031 C 147.628906 233.332031 134.945312 220.644531 134.945312 205.054688 L 134.945312 155.128906 L 164.609375 155.128906 L 164.609375 160.910156 L 140.722656 160.910156 L 140.722656 205.054688 C 140.722656 217.457031 150.816406 227.550781 163.222656 227.550781 L 226.65625 227.550781 C 239.058594 227.550781 249.152344 217.457031 249.152344 205.054688 L 249.152344 160.910156 L 225.269531 160.910156 L 225.269531 155.128906 L 254.933594 155.128906 L 254.933594 205.054688 C 254.933594 220.644531 242.246094 233.332031 226.65625 233.332031 Z M 226.65625 233.332031 " fill-opacity="1" fill-rule="nonzero"/><path fill="#d9d9d9" d="M 194.9375 206.105469 C 175.273438 206.105469 159.277344 190.109375 159.277344 170.445312 C 159.277344 150.78125 175.273438 134.785156 194.9375 134.785156 C 214.601562 134.785156 230.597656 150.78125 230.597656 170.445312 C 230.597656 190.109375 214.601562 206.105469 194.9375 206.105469 Z M 194.9375 140.566406 C 178.460938 140.566406 165.058594 153.96875 165.058594 170.445312 C 165.058594 186.921875 178.460938 200.324219 194.9375 200.324219 C 211.414062 200.324219 224.820312 186.921875 224.820312 170.445312 C 224.820312 153.96875 211.414062 140.566406 194.9375 140.566406 Z M 194.9375 140.566406 " fill-opacity="1" fill-rule="nonzero"/><path fill="#d9d9d9" d="M 242.472656 135.597656 C 236.9375 135.597656 232.4375 131.09375 232.4375 125.558594 C 232.4375 120.023438 236.9375 115.519531 242.472656 115.519531 C 248.007812 115.519531 252.511719 120.023438 252.511719 125.558594 C 252.511719 131.09375 248.007812 135.597656 242.472656 135.597656 Z M 242.472656 121.300781 C 240.125 121.300781 238.214844 123.210938 238.214844 125.558594 C 238.214844 127.90625 240.125 129.816406 242.472656 129.816406 C 244.820312 129.816406 246.730469 127.90625 246.730469 125.558594 C 246.730469 123.210938 244.820312 121.300781 242.472656 121.300781 Z M 242.472656 121.300781 " fill-opacity="1" fill-rule="nonzero"/></svg>