<svg xmlns="http://www.w3.org/2000/svg" xmlns:xlink="http://www.w3.org/1999/xlink" width="500" zoomAndPan="magnify" viewBox="0 0 375 374.999991" height="500" preserveAspectRatio="xMidYMid meet" version="1.0"><defs><clipPath id="06d19efec9"><path d="M 126.960938 109.160156 L 276.960938 109.160156 L 276.960938 259.160156 L 126.960938 259.160156 Z M 126.960938 109.160156 " clip-rule="nonzero"/></clipPath></defs><rect x="-37.5" width="450" fill="#ffffff" y="-37.499999" height="449.999989" fill-opacity="1"/><rect x="-37.5" width="450" fill="#ffffff" y="-37.499999" height="449.999989" fill-opacity="1"/><g clip-path="url(#06d19efec9)"><path fill="#000000" d="M 201.960938 109.160156 C 160.53125 109.160156 126.960938 142.734375 126.960938 184.160156 C 126.960938 225.589844 160.53125 259.160156 201.960938 259.160156 C 243.386719 259.160156 276.960938 225.589844 276.960938 184.160156 C 276.894531 142.734375 243.324219 109.160156 201.960938 109.160156 Z M 245.726562 167.277344 C 245.726562 167.277344 247.023438 195.980469 225.207031 213.773438 C 192.542969 240.332031 157.285156 218.773438 157.285156 218.773438 C 157.285156 218.773438 165.855469 218.902344 173.453125 216.890625 C 180.984375 214.875 186.441406 209.941406 186.441406 209.941406 C 186.441406 209.941406 178.195312 208.253906 173.90625 205.136719 C 169.621094 202.019531 167.933594 196.042969 167.933594 196.042969 C 167.933594 196.042969 170.792969 196.304688 172.542969 196.238281 C 174.363281 196.175781 176.503906 195.332031 176.503906 195.332031 C 176.503906 195.332031 170.597656 194.617188 165.078125 188.449219 C 160.726562 183.578125 161.050781 175.460938 161.050781 175.460938 C 161.050781 175.460938 163.648438 177.019531 165.011719 177.34375 C 166.375 177.734375 169.039062 177.734375 169.039062 177.734375 C 169.039062 177.734375 163.84375 174.679688 161.570312 166.695312 C 159.296875 158.773438 163.648438 150.71875 163.648438 150.71875 C 163.648438 150.71875 171.375 160.070312 182.804688 166.042969 C 194.234375 172.019531 205.011719 171.824219 205.011719 171.824219 C 205.011719 171.824219 203.453125 167.082031 206.179688 160.070312 C 208.90625 153.058594 215.078125 147.992188 224.492188 147.277344 C 233.90625 146.5 239.945312 153.640625 239.945312 153.640625 C 239.945312 153.640625 242.867188 153.121094 246.179688 151.890625 C 249.492188 150.71875 252.804688 149.160156 252.804688 149.160156 C 252.804688 149.160156 251.636719 152.734375 249.363281 155.527344 C 247.089844 158.316406 244.558594 160.007812 244.558594 160.007812 C 244.558594 160.007812 247.542969 159.8125 250.53125 158.96875 C 253.519531 158.121094 255.140625 157.277344 255.140625 157.277344 C 251.699219 162.992188 245.726562 167.277344 245.726562 167.277344 Z M 245.726562 167.277344 " fill-opacity="1" fill-rule="nonzero"/></g></svg>